<svg width="54" height="54" fill="none" xmlns="http://www.w3.org/2000/svg"><rect width="54" height="54" rx="27" fill="#00B900"/><path fill-rule="evenodd" clip-rule="evenodd" d="M34.367 39.924H19.633c-3.11 0-5.633-2.515-5.633-5.617v-14.69C14 16.515 16.522 14 19.633 14h14.734C37.477 14 40 16.515 40 19.617v14.69c0 3.102-2.522 5.617-5.633 5.617" fill="#00B900"/><path fill-rule="evenodd" clip-rule="evenodd" d="M36.423 25.822c0-4.224-4.247-7.66-9.466-7.66-5.22 0-9.467 3.436-9.467 7.66 0 3.786 3.368 6.957 7.917 7.556.308.067.728.203.834.466.096.239.063.612.03.853l-.134.808c-.042.239-.19.934.82.51 1.01-.425 5.451-3.202 7.437-5.48 1.372-1.5 2.029-3.023 2.029-4.713" fill="#fff"/><path fill-rule="evenodd" clip-rule="evenodd" d="M25.036 23.781h-.664a.184.184 0 00-.184.184v4.112c0 .101.082.184.184.184h.664a.184.184 0 00.184-.184v-4.112a.184.184 0 00-.184-.184m4.57 0h-.664a.184.184 0 00-.185.184v2.443l-1.89-2.545a.187.187 0 00-.014-.019l-.001-.001a.296.296 0 00-.012-.011c0-.002-.002-.003-.003-.004l-.01-.008-.005-.004-.01-.006-.005-.003-.01-.006-.005-.003-.01-.004a.075.075 0 00-.007-.002l-.01-.004c-.003 0-.005 0-.007-.002l-.01-.002h-.009c-.003-.002-.006-.002-.01-.002h-.009l-.006-.001h-.664a.184.184 0 00-.185.184v4.112c0 .101.083.184.185.184h.664a.184.184 0 00.184-.184v-2.442l1.893 2.548a.182.182 0 00.06.054c.002 0 .003.002.005.003a.067.067 0 00.009.004l.009.004.005.002a.368.368 0 00.013.004h.003c.015.004.03.007.047.007h.664a.184.184 0 00.184-.184v-4.112a.184.184 0 00-.184-.184m-6.173 3.449h-1.804v-3.265a.184.184 0 00-.185-.184h-.664a.184.184 0 00-.184.184v4.112a.18.18 0 00.054.13l.003.002a.184.184 0 00.127.052h2.653a.184.184 0 00.184-.184v-.662a.184.184 0 00-.184-.184m9.84-2.421a.184.184 0 00.184-.183v-.662a.184.184 0 00-.184-.184H30.62c-.05 0-.095.02-.128.052l-.002.002-.003.003a.183.183 0 00-.051.127v4.112a.182.182 0 00.054.13l.002.002a.184.184 0 00.128.052h2.653a.184.184 0 00.184-.184v-.662a.184.184 0 00-.184-.184h-1.805v-.695h1.805a.184.184 0 00.184-.184v-.662a.184.184 0 00-.184-.184h-1.805v-.695h1.805z" fill="#00B900"/></svg>