<svg width="54" height="54" viewBox="0 0 54 54" fill="none" xmlns="http://www.w3.org/2000/svg">
<rect width="54" height="54" rx="27" fill="#1877F2"/>
<path fill-rule="evenodd" clip-rule="evenodd" d="M31.2809 30.1375L31.7686 26.9671H28.7178V24.9098C28.7178 24.0424 29.1439 23.197 30.5104 23.197H31.8975V20.4979C31.8975 20.4979 30.6386 20.2837 29.4351 20.2837C26.9225 20.2837 25.2803 21.802 25.2803 24.5508V26.9671H22.4873V30.1375H25.2803V37.8016C25.8403 37.8892 26.4143 37.9348 26.999 37.9348C27.5837 37.9348 28.1577 37.8892 28.7178 37.8016V30.1375H31.2809" fill="white"/>
<path fill-rule="evenodd" clip-rule="evenodd" d="M38 26.9677C38 20.9104 33.0751 16 27 16C20.9249 16 16 20.9104 16 26.9677C16 32.442 20.0225 36.9794 25.2813 37.8022V30.1381H22.4883V26.9677H25.2813V24.5514C25.2813 21.8026 26.9235 20.2843 29.4361 20.2843C30.6396 20.2843 31.8984 20.4985 31.8984 20.4985V23.1976H30.5114C29.1449 23.1976 28.7188 24.043 28.7188 24.9103V26.9677H31.7695L31.2818 30.1381H28.7188V37.8022C33.9775 36.9794 38 32.442 38 26.9677" fill="#1877F2"/>
</svg>
