<svg width="54" height="54" fill="none" xmlns="http://www.w3.org/2000/svg"><rect width="54" height="54" rx="27" fill="#1DA1F2"/><path d="M23.765 34.853c6.919 0 10.703-5.715 10.703-10.67 0-.163 0-.325-.011-.485a7.64 7.64 0 001.876-1.942 7.523 7.523 0 01-2.16.59 3.765 3.765 0 001.654-2.074 7.552 7.552 0 01-2.389.91 3.773 3.773 0 00-4.519-.738 3.75 3.75 0 00-1.89 4.159 10.69 10.69 0 01-7.753-3.919 3.746 3.746 0 001.165 5.007 3.74 3.74 0 01-1.708-.47v.048a3.754 3.754 0 003.018 3.676 3.767 3.767 0 01-1.698.065 3.764 3.764 0 003.514 2.604A7.562 7.562 0 0118 33.169a10.671 10.671 0 005.765 1.681" fill="#fff"/></svg>