<svg width="26" height="21" xmlns="http://www.w3.org/2000/svg"><path d="M8.377 20.525c9.403 0 14.546-7.79 14.546-14.545 0-.221 0-.442-.015-.661 1-.724 1.864-1.62 2.55-2.646-.933.413-1.922.684-2.936.804A5.13 5.13 0 0024.77.65a10.245 10.245 0 01-3.247 1.24 5.117 5.117 0 00-8.711 4.663A14.513 14.513 0 012.276 1.212a5.116 5.116 0 001.583 6.824 5.074 5.074 0 01-2.32-.64v.065a5.114 5.114 0 004.1 5.011 5.104 5.104 0 01-2.308.088 5.118 5.118 0 004.776 3.55 10.258 10.258 0 01-7.565 2.119 14.473 14.473 0 007.835 2.292" fill="#1DA1F2"/></svg>