<svg width="54" height="54" fill="none" xmlns="http://www.w3.org/2000/svg"><rect width="54" height="54" rx="27" fill="#1877F2"/><path fill-rule="evenodd" clip-rule="evenodd" d="M31.28 30.137l.489-3.17h-3.051V24.91c0-.868.426-1.713 1.792-1.713h1.387v-2.7s-1.258-.213-2.462-.213c-2.512 0-4.155 1.518-4.155 4.267v2.416h-2.793v3.17h2.793v7.665a11.115 11.115 0 003.438 0v-7.665h2.563" fill="#fff"/><path fill-rule="evenodd" clip-rule="evenodd" d="M38 26.968C38 20.91 33.075 16 27 16s-11 4.91-11 10.968c0 5.474 4.023 10.011 9.281 10.834v-7.664h-2.793v-3.17h2.793V24.55c0-2.748 1.643-4.267 4.155-4.267 1.204 0 2.462.215 2.462.215v2.699h-1.387c-1.366 0-1.792.845-1.792 1.712v2.058h3.05l-.487 3.17h-2.563v7.664C33.977 36.98 38 32.442 38 26.968" fill="#1877F2"/></svg>