<svg width="24" height="24" xmlns="http://www.w3.org/2000/svg"><g fill="none" fill-rule="evenodd"><path d="M18.8 24H5.2A5.2 5.2 0 010 18.8V5.2A5.2 5.2 0 015.2 0h13.6A5.2 5.2 0 0124 5.2v13.6a5.2 5.2 0 01-5.2 5.2" fill="#00B900"/><path d="M20.7 10.945c0-3.91-3.92-7.091-8.739-7.091-4.818 0-8.738 3.18-8.738 7.09 0 3.506 3.109 6.442 7.308 6.997.284.061.672.187.77.43.088.222.057.568.028.79l-.125.749c-.038.22-.176.864.757.47.933-.392 5.032-2.962 6.866-5.072 1.266-1.39 1.872-2.798 1.872-4.363" fill="#FFF"/><path d="M10.186 9.055h-.613a.17.17 0 00-.17.17v3.808c0 .093.076.17.17.17h.613a.17.17 0 00.17-.17V9.225a.17.17 0 00-.17-.17m4.218 0h-.612a.17.17 0 00-.17.17v2.262l-1.746-2.356a.186.186 0 00-.013-.017v-.002a.255.255 0 00-.014-.013l-.01-.007c0-.002-.002-.003-.004-.004l-.009-.006-.005-.003-.009-.005-.005-.003-.01-.004a.063.063 0 00-.006-.002.084.084 0 00-.01-.003l-.006-.002a.141.141 0 00-.017-.003l-.008-.001h-.628a.17.17 0 00-.17.17v3.807c0 .093.076.17.17.17h.613a.17.17 0 00.17-.17V10.77l1.747 2.36a.169.169 0 00.043.042l.002.001a.186.186 0 00.01.006l.005.003a.078.078 0 00.009.004l.008.003.005.002.011.004h.003a.164.164 0 00.044.006h.612a.17.17 0 00.17-.17V9.226a.17.17 0 00-.17-.17m-5.696 3.193H7.043V9.225a.17.17 0 00-.17-.17H6.26a.17.17 0 00-.17.17v3.807a.17.17 0 00.047.118l.002.003.003.002a.17.17 0 00.117.048h2.45a.17.17 0 00.17-.17v-.614a.17.17 0 00-.17-.17m9.081-2.24a.17.17 0 00.17-.17v-.614a.17.17 0 00-.17-.17h-2.45a.169.169 0 00-.118.048l-.002.002-.002.003a.17.17 0 00-.048.117v3.807a.169.169 0 00.05.12l.003.003a.17.17 0 00.117.048h2.45a.17.17 0 00.17-.17v-.614a.17.17 0 00-.17-.17h-1.666v-.644h1.665a.17.17 0 00.17-.17v-.613a.17.17 0 00-.17-.17h-1.665v-.643h1.665z" fill="#00B900"/></g></svg>