<svg xmlns="http://www.w3.org/2000/svg" width="18" height="18" viewBox="0 0 18 18"><g transform="translate(-1136.5 98.5)"><path d="M5,1A4,4,0,0,0,1,5v8a4,4,0,0,0,4,4h8a4,4,0,0,0,4-4V5a4,4,0,0,0-4-4H5M5,0h8a5,5,0,0,1,5,5v8a5,5,0,0,1-5,5H5a5,5,0,0,1-5-5V5A5,5,0,0,1,5,0Z" transform="translate(1136.5 -98.5)" fill="#01073a"/><path d="M39.007,10.615a1,1,0,1,0-1-1,1,1,0,0,0,1,1" transform="translate(1111.893 -104.115)" fill="#01073a"/><path d="M18.2,14.234a4.5,4.5,0,1,1-4.5,4.5A4.505,4.505,0,0,1,18.2,14.234Zm0,8a3.5,3.5,0,1,0-3.5-3.5A3.5,3.5,0,0,0,18.2,22.234Z" transform="translate(1127.301 -108.234)" fill="#01073a"/></g></svg>