<svg xmlns="http://www.w3.org/2000/svg" width="30" height="24.001"><defs><clipPath id="a"><path data-name="長方形 3" fill="none" d="M0 0h30v24H0z"/></clipPath></defs><g data-name="ベクトルスマートオブジェクト"><g data-name="グループ 6"><g data-name="グループ 5" clip-path="url(#a)"><path data-name="パス 33" d="M29.991 2.806l-.019-.068-.07-.248A3.415 3.415 0 0026.659 0h-23.3A3.385 3.385 0 00.013 3.3v1.054c0 .52 0 1.058-.007 1.588a.532.532 0 00.256.5c2.16 1.575 4.352 3.18 6.471 4.734l1.5 1.1 1.455 1.067q1.625 1.192 3.251 2.38a3.445 3.445 0 002.061.688c.107 0 .216 0 .325-.014a3.723 3.723 0 001.935-.785q2.3-1.689 4.6-3.375l3.409-2.5q1.639-1.2 3.275-2.408l1.35-.993a.257.257 0 00.1-.2V2.873a.256.256 0 00-.009-.068m-2.459 2.55l-5.664 4.15-2.333 1.71-3.579 2.628a1.6 1.6 0 01-.935.386 1.61 1.61 0 01-.94-.389l-2.111-1.548c-3.095-2.269-6.3-4.617-9.448-6.92a.682.682 0 01-.318-.64c.012-.249.01-.506.007-.753v-.4a1.289 1.289 0 011.439-1.412h22.685a1.591 1.591 0 01.98.261 1.254 1.254 0 01.509 1.034c.006.24.005.484 0 .719s0 .47 0 .7a.542.542 0 01-.294.473"/><path data-name="パス 34" d="M29.677 9.724a1.112 1.112 0 00-1.556 0 1.071 1.071 0 00-.323.769v9.821a1.562 1.562 0 01-.368 1.155 1.585 1.585 0 01-1.162.366H3.736c-1.06 0-1.532-.469-1.532-1.521v-9.821A1.091 1.091 0 001.1 9.406 1.092 1.092 0 000 10.489v10.207A3.419 3.419 0 003.355 24h23.3a3.285 3.285 0 001.68-.477l-.008-.007a3.521 3.521 0 00.661-.516A3.281 3.281 0 0030 20.7V10.494a1.07 1.07 0 00-.321-.765"/></g></g></g><path data-name="Color Overlay" d="M15 24H3.355a3.42 3.42 0 01-3.347-3.3c-.005-2.717 0-7.515 0-10.207a1.1 1.1 0 012.2 0v9.822c0 1.052.473 1.521 1.532 1.521h22.53a1.585 1.585 0 001.162-.365 1.565 1.565 0 00.368-1.156v-9.822a1.072 1.072 0 01.322-.769 1.112 1.112 0 011.556 0 1.068 1.068 0 01.321.764v10.207a3.285 3.285 0 01-1.008 2.309 3.506 3.506 0 01-.657.511l.008.007a3.287 3.287 0 01-1.68.477H15zm-2.069-8.277q-1.628-1.185-3.252-2.379l-1.454-1.067-1.5-1.1A3213.14 3213.14 0 00.254 6.443a.526.526 0 01-.257-.459v-.037c.01-.529.008-1.067.007-1.588V3.304A3.387 3.387 0 013.35.004h23.3a3.415 3.415 0 013.243 2.487l.069.248.02.068a.254.254 0 01.009.068v3.259a.256.256 0 01-.1.2l-1.35.993q-1.636 1.2-3.275 2.407l-3.409 2.5q-2.3 1.686-4.6 3.375a3.722 3.722 0 01-1.935.785c-.109.01-.219.014-.325.014a3.441 3.441 0 01-2.064-.685zM3.642 2.167a1.289 1.289 0 00-1.439 1.407v.4c0 .248.005.5-.007.753a.682.682 0 00.318.641c3.152 2.3 6.353 4.651 9.448 6.92l2.111 1.549a1.328 1.328 0 001.875 0l3.585-2.627 2.333-1.71 5.665-4.15a.541.541 0 00.293-.472V3.459a1.251 1.251 0 00-.509-1.034 1.587 1.587 0 00-.979-.261H3.644z" fill="#fff"/></svg>