<svg xmlns="http://www.w3.org/2000/svg" width="48" height="48"><path d="M23.008 5C11.6 5 2.006 12.55 2.006 22.236c0 8.638 7.601 15.649 17.5 16.996.228.05.471.13.627.198-.015.085.02.481-.028.843v.002c-.012.077-.224 1.34-.27 1.604l.003-.002c-.075.433-.316 1.157.355 2.172.336.507 1.092.939 1.77.951.677.012 1.246-.21 1.869-.553 4.548-2.5 9.49-5.323 13.383-8.867 3.893-3.544 6.79-7.94 6.79-13.344C44.006 12.551 34.416 5 23.009 5zm0 3c10.094 0 17.998 6.568 17.998 14.236 0 4.343-2.271 7.903-5.81 11.125-3.395 3.09-7.91 5.732-12.253 8.133l.13-.775.003-.024.004-.023c.075-.563.285-1.407-.156-2.51l-.002-.002v-.002c-.334-.825-.951-1.183-1.445-1.42a5.936 5.936 0 00-1.35-.441l-.059-.012-.06-.008c-8.788-1.156-15.002-7.153-15.002-14.04C5.006 14.566 12.913 8 23.008 8zm-4.674 9.137a1.02 1.02 0 00-1.023 1.015v7.694a1.02 1.02 0 001.023 1.015 1.02 1.02 0 001.023-1.015v-7.694a1.02 1.02 0 00-1.023-1.015zm3.52 0a1.016 1.016 0 00-1.025 1.016v7.693c0 .56.46 1.015 1.025 1.015a1.02 1.02 0 001.025-1.015v-4.758l3.975 5.367a1.032 1.032 0 001.142.354c.42-.137.701-.524.701-.963V18.15c0-.56-.458-1.013-1.023-1.013a1.02 1.02 0 00-1.026 1.013v4.762l-3.976-5.369a1.033 1.033 0 00-.818-.406zm-10.387.002a1.02 1.02 0 00-1.024 1.013v7.696a1.02 1.02 0 001.024 1.015h3.879a1.02 1.02 0 001.021-1.017c0-.56-.456-1.016-1.021-1.016h-2.858v-6.678c0-.56-.456-1.013-1.021-1.013zm19.629 0a1.02 1.02 0 00-1.024 1.015v7.692c0 .56.46 1.015 1.024 1.015h3.879c.565 0 1.025-.455 1.025-1.015 0-.56-.46-1.016-1.025-1.016h-2.856v-1.816h2.856c.566 0 1.025-.456 1.025-1.016 0-.561-.46-1.016-1.025-1.016v.004h-2.856V19.17h2.856c.566 0 1.025-.456 1.025-1.016s-.46-1.015-1.025-1.015h-3.88z"/></svg>