<svg xmlns="http://www.w3.org/2000/svg"  viewBox="0 0 48 48" width="48px" height="48px">
<path d="M 23.007812 5 C 11.600129 5 2.0058594 12.5508 2.0058594 22.236328 C 2.0058594 30.874232 9.6073525 37.884555 19.505859 39.232422 C 19.733605 39.281857 19.977406 39.361175 20.132812 39.429688 C 20.118043 39.515147 20.153199 39.911316 20.105469 40.273438 C 20.105469 40.273438 20.105469 40.275391 20.105469 40.275391 C 20.092619 40.352451 19.881057 41.615404 19.835938 41.878906 L 19.837891 41.876953 C 19.762771 42.309977 19.521995 43.033546 20.193359 44.048828 C 20.529042 44.556469 21.285396 44.987587 21.962891 45 C 22.640385 45.01241 23.208997 44.789728 23.832031 44.447266 C 28.380052 41.946356 33.321386 39.124288 37.214844 35.580078 C 41.108302 32.035869 44.005859 27.639151 44.005859 22.236328 C 44.005809 12.551142 34.415496 5 23.007812 5 z M 23.007812 8 C 33.10213 8 41.005859 14.567511 41.005859 22.236328 C 41.005859 26.578505 38.734856 30.139288 35.195312 33.361328 C 31.801217 36.450969 27.286874 39.09321 22.943359 41.494141 C 23.000899 41.149653 23.072266 40.71875 23.072266 40.71875 L 23.076172 40.695312 L 23.080078 40.671875 C 23.155098 40.109193 23.364983 39.264995 22.923828 38.162109 L 22.921875 38.160156 L 22.921875 38.158203 C 22.588283 37.333404 21.970623 36.974887 21.476562 36.738281 C 20.982502 36.501675 20.514934 36.37997 20.126953 36.296875 L 20.068359 36.285156 L 20.007812 36.277344 C 11.219504 35.121092 5.0058594 29.123568 5.0058594 22.236328 C 5.0058594 14.567856 12.913496 8 23.007812 8 z M 18.333984 17.136719 C 17.769984 17.136719 17.310547 17.592344 17.310547 18.152344 L 17.310547 25.845703 C 17.310547 26.406703 17.768984 26.861328 18.333984 26.861328 C 18.897984 26.861328 19.357422 26.405703 19.357422 25.845703 L 19.357422 18.152344 C 19.357422 17.592344 18.898984 17.136719 18.333984 17.136719 z M 21.853516 17.136719 C 21.743516 17.136719 21.633344 17.154453 21.527344 17.189453 C 21.109344 17.328453 20.828125 17.715344 20.828125 18.152344 L 20.828125 25.845703 C 20.828125 26.406703 21.288516 26.861328 21.853516 26.861328 C 22.419516 26.861328 22.878906 26.405703 22.878906 25.845703 L 22.878906 21.087891 L 26.853516 26.455078 C 27.045516 26.709078 27.351875 26.861328 27.671875 26.861328 C 27.780875 26.861328 27.890094 26.843594 27.996094 26.808594 C 28.416094 26.671594 28.697266 26.284703 28.697266 25.845703 L 28.697266 18.150391 C 28.697266 17.590391 28.238828 17.136719 27.673828 17.136719 C 27.108828 17.136719 26.648438 17.590391 26.648438 18.150391 L 26.648438 22.912109 L 22.671875 17.542969 C 22.479875 17.288969 22.172516 17.136719 21.853516 17.136719 z M 11.466797 17.138672 C 10.902797 17.138672 10.443359 17.592344 10.443359 18.152344 L 10.443359 25.847656 C 10.443359 26.408656 10.901797 26.863281 11.466797 26.863281 L 15.345703 26.863281 C 15.910703 26.863281 16.368187 26.405703 16.367188 25.845703 C 16.367188 25.285703 15.910703 24.830078 15.345703 24.830078 L 12.488281 24.830078 L 12.488281 18.152344 C 12.488281 17.592344 12.031797 17.138672 11.466797 17.138672 z M 31.095703 17.138672 C 30.531703 17.138672 30.072266 17.594297 30.072266 18.154297 L 30.072266 18.15625 L 30.072266 21.998047 L 30.072266 22 L 30.072266 22.001953 L 30.072266 25.845703 C 30.072266 26.406703 30.532703 26.861328 31.095703 26.861328 L 34.974609 26.861328 C 35.539609 26.861328 36 26.405703 36 25.845703 C 36 25.285703 35.539609 24.830078 34.974609 24.830078 L 32.119141 24.830078 L 32.119141 23.013672 L 34.974609 23.013672 C 35.540609 23.013672 36 22.558047 36 21.998047 C 36 21.437047 35.539609 20.982422 34.974609 20.982422 L 34.974609 20.986328 L 32.119141 20.986328 L 32.119141 19.169922 L 34.974609 19.169922 C 35.540609 19.169922 36 18.714297 36 18.154297 C 36 17.594297 35.539609 17.138672 34.974609 17.138672 L 31.095703 17.138672 z"/></svg>
