<svg xmlns="http://www.w3.org/2000/svg" width="30" height="30"><path d="M6 4a2 2 0 00-2 2v18a2 2 0 002 2h18a2 2 0 002-2V6a2 2 0 00-2-2H6zm9.004 3.666c4.717 0 8.555 3.114 8.555 6.943 0 1.533-.594 2.915-1.834 4.274-1.795 2.066-5.808 4.582-6.721 4.967-.912.384-.778-.245-.742-.461l.123-.733c.029-.219.057-.556-.03-.773-.097-.237-.474-.362-.753-.422-4.112-.544-7.155-3.42-7.155-6.852 0-3.828 3.84-6.943 8.557-6.943zm-2.377 5.244a.448.448 0 00-.455.438v3.304c0 .242.204.438.455.438a.447.447 0 00.455-.438v-3.304a.448.448 0 00-.455-.438zm1.935 0a.437.437 0 00-.434.436v3.304c0 .242.194.44.434.44s.434-.2.434-.44v-2.045l1.684 2.31a.43.43 0 00.482.151.438.438 0 00.299-.414h-.004v-3.304a.436.436 0 00-.432-.438.438.438 0 00-.433.438v2.045l-1.684-2.307a.43.43 0 00-.345-.176zm4.368 0a.448.448 0 00-.455.438v3.302c0 .242.204.44.455.44h1.724a.449.449 0 00.457-.438.448.448 0 00-.457-.435h-1.27v-.781h1.27a.447.447 0 00.457-.436.448.448 0 00-.457-.438l-1.27.002v-.78h1.27a.447.447 0 00.457-.436.45.45 0 00-.457-.438H18.93zm-9.586.002a.446.446 0 00-.455.436v3.304c0 .242.204.438.455.438h1.724a.447.447 0 00.455-.436.446.446 0 00-.455-.435h-1.27v-2.871a.446.446 0 00-.454-.436z"/></svg>